# xmcd
# Track frame offsets:
# 150
# 23250
# 42377
# 59268
# 74019
# 91827
# 112367
# 128792
# 143567
#
# Disc length: 2109 seconds
# Revision: 0
# Processed by: cddbd v1.5.1PL0 Copyright (c) Steve Scherf et al.
# Submitted via: VisiTrax 2.9.10.228 - For more info visit www.synapsa.com
#
DISCID=7b083b09
DTITLE=Various Artist - Hits Monthly Nashville  PHN0202
DYEAR=1900
DGENRE=Karaoke
TTITLE0=Jackson, Alan - Where Were You
TTITLE1=Brooks, Garth - Wrapped Up In You
TTITLE2=Brooks and Dunn - Long Goodbye, The
TTITLE3=Womack, Lee Ann - Does My Ring Burn Your Finger
TTITLE4=McBride, Martina - Blessed
TTITLE5=Wills, Mark and Jamie - I'm Not Gonna Do Anything Without You
TTITLE6=Loveless, Patty and Travis - Out Of Control Raging Fire
TTITLE7=Thomson, Cyndi - I Always Liked That Best
TTITLE8=Shelton, Blake - All Over Me
EXTD=
EXTT0=
EXTT1=
EXTT2=
EXTT3=
EXTT4=
EXTT5=
EXTT6=
EXTT7=
EXTT8=
PLAYORDER=
